<?xml version="1.0" standalone="no"?>
<!DOCTYPE svg PUBLIC "-//W3C//DTD SVG 20010904//EN"
 "http://www.w3.org/TR/2001/REC-SVG-20010904/DTD/svg10.dtd">
<svg version="1.0" xmlns="http://www.w3.org/2000/svg"
 width="816.000000pt" height="816.000000pt" viewBox="0 0 816.000000 816.000000"
 preserveAspectRatio="xMidYMid meet">
<metadata>
Created by potrace 1.11, written by Peter Selinger 2001-2013
</metadata>
<g transform="translate(0.000000,816.000000) scale(0.100000,-0.100000)"
fill="#000000" stroke="none">
<path d="M4827 6978 c-8 -13 -69 -131 -137 -263 -277 -542 -887 -1719 -1203
-2322 l-232 -441 -85 -12 c-372 -52 -762 -158 -1082 -295 -758 -325 -1290
-871 -1425 -1460 -24 -107 -24 -314 0 -403 61 -228 217 -380 454 -443 66 -18
107 -21 263 -22 523 0 960 155 1380 489 134 107 414 394 548 562 312 392 530
748 922 1500 4 8 20 -27 38 -85 126 -394 465 -593 972 -570 235 11 416 60 655
176 241 118 437 262 655 481 415 416 812 1061 955 1554 67 234 95 474 77 674
-44 491 -303 820 -702 889 -102 18 -267 13 -385 -12 -231 -48 -529 -188 -783
-369 -51 -36 -95 -66 -98 -66 -3 0 47 101 111 223 63 123 115 227 115 230 0 4
-225 7 -500 7 l-500 0 -13 -22z m1586 -572 c136 -49 195 -201 169 -436 -43
-388 -312 -972 -651 -1414 -274 -358 -574 -525 -869 -485 -169 23 -256 101
-308 274 -29 100 -23 295 15 483 31 150 33 156 120 320 49 92 132 254 185 361
l97 194 147 149 c306 313 605 510 847 558 64 13 207 10 248 -4z m-3453 -2952
c0 -25 -281 -457 -409 -629 -297 -399 -546 -636 -796 -759 -126 -62 -211 -86
-311 -86 -90 0 -132 20 -161 80 -40 78 -24 180 52 335 144 291 507 620 905
820 175 88 385 164 604 220 99 25 116 28 116 19z"/>
</g>
</svg>
