<?xml version="1.0" encoding="utf-8"?>
<!-- Generator: Adobe Illustrator 21.1.0, SVG Export Plug-In . SVG Version: 6.00 Build 0)  -->
<svg version="1.1" id="Layer_2" xmlns="http://www.w3.org/2000/svg" xmlns:xlink="http://www.w3.org/1999/xlink" x="0px" y="0px"
	 viewBox="0 0 102 89.5" style="enable-background:new 0 0 102 89.5;" xml:space="preserve">
<style type="text/css">
	.st0{fill:#E0162E;}
</style>
<g>
	<path class="st0" d="M90.6,35.4c-8.3,15-18.1,20.2-25.9,20.2c-7.8,0-10.8-4.1-11.7-8.6c-1.5,3-2.7,5.3-3.4,6.5
		c-12,21.7-22.4,25.8-32.8,25.8c-16.5,0-10.3-28.7,23.9-32.9c6-11.2,19.8-38.1,19.8-38.1H73c0,0-1.2,2.4-3.1,6c4-3,9.1-6,14.1-6
		C93.8,8.1,99,20.3,90.6,35.4z M37.2,52.4c-18.1,3.5-25.6,18.7-19.3,18.7C22.3,71.1,28.7,66.9,37.2,52.4z M78.7,15.4
		c-5.5,0-11.7,6.3-14.1,9.1c-1.5,2.9-3,6-4.6,8.9c-0.8,3.2-2.8,11.6,4.2,11.6c4.7,0,8.9-3.4,13.6-11.7
		C82.5,25.1,84.9,15.4,78.7,15.4z"/>
</g>
</svg>
