<?xml version="1.0" encoding="utf-8"?>
<!-- Generator: Adobe Illustrator 21.1.0, SVG Export Plug-In . SVG Version: 6.00 Build 0)  -->
<svg version="1.1" id="Layer_2" xmlns="http://www.w3.org/2000/svg" xmlns:xlink="http://www.w3.org/1999/xlink" x="0px" y="0px"
	 viewBox="0 0 333.7 96.7" style="enable-background:new 0 0 333.7 96.7;" xml:space="preserve">
<style type="text/css">
	.st0{fill:#E0162E;}
</style>
<g>
	<path class="st0" d="M97.8,38.3c-8.5,15-18.5,20.2-26.5,20.2s-11-4.1-12-8.6c-1.6,3-2.8,5.3-3.5,6.5c-12.2,21.7-23,25.8-33.6,25.8
		c-16.9,0-10.5-28.7,24.5-32.9C52.8,38.1,67,11.2,67,11.2h12.8c0,0-1.2,2.4-3.2,6c4.1-3,9.4-6,14.4-6
		C101.1,11.1,106.4,23.2,97.8,38.3z M43.2,55.4C24.6,58.9,17,74.1,23.5,74.1C27.9,74.1,34.4,69.8,43.2,55.4z M85.7,18.4
		c-5.6,0-12,6.3-14.5,9.1c-1.5,2.9-3.1,6-4.7,8.9C65.7,39.6,63.6,48,70.8,48c4.8,0,9.1-3.4,13.9-11.7C89.6,28.1,92,18.4,85.7,18.4z"
		/>
	<path class="st0" d="M167.5,67.9c0,0-2.2,14.3-15.3,14.3c-10.5,0-18-8.4-30.7-14.6c-9.3,12-17.9,14.5-26.3,14.5
		c-17.3,0-15-32.3,20.5-25.9c0.5-0.8,1-1.7,1.5-2.6c1.4-2.4,5.8-10.7,9.9-18.4c-4.1-1-7.6-2.8-9.8-5.1c-4.5-4.8,2-9.4,2-9.4
		c3.1,4.2,7.1,6.6,11.3,7.8c2.6-4.9,4.5-8.5,4.5-8.5c2.6-5,7.9-15.3,17.1-15.3c14.5,0,11.1,18.9,0.6,26.6c-3.7,2.7-8.4,4.2-13.1,4.8
		c-4.3,8.3-8.8,16.7-10.9,20.4c-0.6,0.9-1.2,1.9-1.7,2.8C141.8,64.8,157.5,73.4,167.5,67.9z M110.1,64
		c-17.6-3.4-20.2,10.2-13.7,10.2C99.8,74.1,103.8,71.6,110.1,64z M143.5,28.5c2.7-0.6,5-1.9,6.6-3.3c5.9-5.4,5.8-11.3,3.1-11.3
		c-2.4,0-3.9,3.3-5.3,6C146.8,22.2,145.2,25.2,143.5,28.5z"/>
	<path class="st0" d="M249.5,38.3C241,53.3,231,58.5,223,58.5s-11-4.1-12-8.6c-1.6,3-2.8,5.3-3.5,6.5c-12.2,21.7-23,25.8-33.6,25.8
		c-16.9,0-10.5-28.7,24.5-32.9c6.1-11.2,20.3-38.1,20.3-38.1h12.8c0,0-1.2,2.4-3.2,6c4.1-3,9.4-6,14.4-6
		C252.7,11.1,258,23.2,249.5,38.3z M194.8,55.4c-18.6,3.5-26.2,18.7-19.7,18.7C179.6,74.1,186,69.8,194.8,55.4z M237.3,18.4
		c-5.6,0-12,6.3-14.5,9.1c-1.5,2.9-3.1,6-4.7,8.9c-0.8,3.2-2.9,11.6,4.3,11.6c4.8,0,9.1-3.4,13.9-11.7
		C241.2,28.1,243.6,18.4,237.3,18.4z"/>
	<path class="st0" d="M323.6,13.8l-2.3,4.5c-0.6,1.4-2.1,2.3-3.7,2.3h-19.3c-6.3,12-16.6,31.3-19,35.6C267.1,77.9,255.6,82,245,82
		c-16.9,0-9.1-28.7,25.9-32.9c3.8-6.9,10.6-19.7,15.3-28.5H265c-0.6,0-1.1-0.3-1.4-0.8s-0.4-1.1-0.1-1.6l2.7-5.5
		c0.5-1.1,1.6-1.7,2.7-1.7h22.3h11.4H322c0.6,0,1.2,0.4,1.6,0.9C323.8,12.6,323.8,13.3,323.6,13.8z M267.4,55.4
		c-18.6,3.5-27.7,18.7-21.2,18.7C250.7,74.1,258.6,69.8,267.4,55.4z"/>
</g>
</svg>
