<?xml version="1.0" encoding="utf-8"?>
<!-- Generator: Adobe Illustrator 21.1.0, SVG Export Plug-In . SVG Version: 6.00 Build 0)  -->
<svg version="1.1" id="Layer_2" xmlns="http://www.w3.org/2000/svg" xmlns:xlink="http://www.w3.org/1999/xlink" x="0px" y="0px"
	 viewBox="0 0 490 96.5" style="enable-background:new 0 0 490 96.5;" xml:space="preserve">
<style type="text/css">
	.st0{fill:#E0162E;}
</style>
<g>
	<path class="st0" d="M91,14.8l-2.3,4.5c-0.6,1.4-2.1,2.3-3.7,2.3H65.7c-6.3,12-16.6,31.3-19,35.6C34.5,78.9,23,83,12.4,83
		c-16.9,0-9.1-28.7,25.9-32.9c3.8-6.9,10.6-19.7,15.3-28.5H32.4c-0.6,0-1.1-0.3-1.4-0.8s-0.4-1.1-0.1-1.6l2.7-5.5
		c0.5-1.1,1.6-1.7,2.7-1.7h22.3H70h19.4c0.6,0,1.2,0.4,1.6,0.9C91.3,13.6,91.3,14.3,91,14.8z M34.9,56.4
		C16.3,59.9,7.2,75.1,13.7,75.1C18.2,75.1,26.1,70.8,34.9,56.4z"/>
	<path class="st0" d="M124.5,44c-2,2.1-25.7,26-31.5,31.5c-6.2,5.9-10.2,7.6-13.2,7.6c-4.8,0-6.8-3.5-2.8-10.9
		c3-5.4,5.1-9.6,8.4-15.6c3-5.5,3.9-8.7,1.4-8.7c-4.1,0-23.3,18-32.7,35.3H42.7l38.1-71h11.4L68,57.3c14.4-18.9,24.8-22,28.3-22
		c5.5,0,9.9,3.7,5,12.8c-1.9,3.4-3.5,6.3-6.6,12.2c-1.1,1.9-3,5.9-2.4,6.5s2.3-0.9,4.1-2.5c2.8-2.3,24.6-23,27.2-25.9
		C125.2,37,125.2,43.2,124.5,44z"/>
	<path class="st0" d="M142.2,71.9c-7.8,6.3-15.7,11.2-23.8,11.2c-17.6,0-21.2-13.6-11.4-29.4c8.1-12.8,17.9-18.4,24.3-18.4
		c10.4,0,16.9,9.9,6.6,22.8c-6.2,7.7-13.3,11.1-19.6,9.1c-1.6-0.4-2.8-1.2-3.8-2.2c-1.2,5.8,1.3,9.4,7.5,9.4
		c5.5,0,11.7-3.4,18.1-8.9C140.1,65.7,145,69.5,142.2,71.9z M117.7,57.6c-0.1,0.4-0.4,0.6-0.6,1c3.5,2.7,7.6,0,10.9-2.8
		c4.6-3.9,8.5-12.3,4.8-12.3C129.1,43.5,122.3,49.8,117.7,57.6z"/>
	<path class="st0" d="M256.8,39.3c-8.5,15-18.5,20.2-26.5,20.2s-11-4.1-12-8.6c-1.6,3-2.8,5.3-3.5,6.5c-12.2,21.7-23,25.8-33.6,25.8
		c-16.9,0-10.5-28.7,24.5-32.9c6.1-11.2,20.3-38.1,20.3-38.1h12.8c0,0-1.2,2.4-3.2,6c4.1-3,9.4-6,14.4-6
		C260.1,12.1,265.4,24.2,256.8,39.3z M202.2,56.4c-18.6,3.5-26.2,18.7-19.7,18.7C186.9,75.1,193.4,70.8,202.2,56.4z M244.7,19.4
		c-5.6,0-12,6.3-14.5,9.1c-1.5,2.9-3.1,6-4.7,8.9c-0.8,3.2-2.9,11.6,4.3,11.6c4.8,0,9.1-3.4,13.9-11.7
		C248.6,29.1,251,19.4,244.7,19.4z"/>
	<path class="st0" d="M326.5,68.9c0,0-2.2,14.3-15.3,14.3c-10.5,0-18-8.4-30.7-14.6c-9.3,12-17.9,14.5-26.3,14.5
		c-17.3,0-15-32.3,20.5-25.9c0.5-0.8,1-1.7,1.5-2.6c1.4-2.4,5.8-10.7,9.9-18.4c-4.1-1-7.6-2.8-9.8-5.1c-4.5-4.8,2-9.4,2-9.4
		c3.1,4.2,7.1,6.6,11.3,7.8c2.6-4.9,4.5-8.5,4.5-8.5c2.6-5,7.9-15.3,17.1-15.3c14.5,0,11.1,18.9,0.6,26.6c-3.7,2.7-8.4,4.2-13.1,4.8
		c-4.3,8.3-8.8,16.7-10.9,20.4c-0.6,0.9-1.2,1.9-1.7,2.8C300.8,65.8,316.5,74.4,326.5,68.9z M269.1,65
		c-17.6-3.4-20.2,10.2-13.7,10.2C258.8,75.1,262.8,72.6,269.1,65z M302.5,29.5c2.7-0.6,5-1.9,6.6-3.3c5.9-5.4,5.8-11.3,3.1-11.3
		c-2.4,0-3.9,3.3-5.3,6C305.8,23.2,304.2,26.2,302.5,29.5z"/>
	<path class="st0" d="M408.5,39.3C400,54.3,390,59.5,382,59.5s-11-4.1-12-8.6c-1.6,3-2.8,5.3-3.5,6.5c-12.2,21.7-23,25.8-33.6,25.8
		c-16.9,0-10.5-28.7,24.5-32.9c6.1-11.2,20.3-38.1,20.3-38.1h12.8c0,0-1.2,2.4-3.2,6c4.1-3,9.4-6,14.4-6
		C411.7,12.1,417,24.2,408.5,39.3z M353.8,56.4c-18.6,3.5-26.2,18.7-19.7,18.7C338.6,75.1,345,70.8,353.8,56.4z M396.3,19.4
		c-5.6,0-12,6.3-14.5,9.1c-1.5,2.9-3.1,6-4.7,8.9c-0.8,3.2-2.9,11.6,4.3,11.6c4.8,0,9.1-3.4,13.9-11.7
		C400.2,29.1,402.6,19.4,396.3,19.4z"/>
	<path class="st0" d="M482.6,14.8l-2.3,4.5c-0.6,1.4-2.1,2.3-3.7,2.3h-19.3c-6.3,12-16.6,31.3-19,35.6C426.1,78.9,414.6,83,404,83
		c-16.9,0-9.1-28.7,25.9-32.9c3.8-6.9,10.6-19.7,15.3-28.5H424c-0.6,0-1.1-0.3-1.4-0.8s-0.4-1.1-0.1-1.6l2.7-5.5
		c0.5-1.1,1.6-1.7,2.7-1.7h22.3h11.4H481c0.6,0,1.2,0.4,1.6,0.9C482.8,13.6,482.8,14.3,482.6,14.8z M426.4,56.4
		c-18.6,3.5-27.7,18.7-21.2,18.7C409.7,75.1,417.6,70.8,426.4,56.4z"/>
</g>
</svg>
